<!-- <svg id="Capa_1" data-name="Capa 1" xmlns="http://www.w3.org/2000/svg" viewBox="0 0 470 470">
    <defs>
        <style>
            .cls-1,
            .cls-6 {
                fill: rgba(0, 0, 0, 0.0);


            }

            .cls-2 {
                fill: rgba(0, 0, 0, 0);

            }

            .cls-3 {
                font-size: 149.38px;
                fill: #bae1ff;
            }

            .cls-3,
            .cls-4 {
                font-family: Sylfaen;
            }

            .cls-4 {
                font-size: 91.1px;
                fill: #bae1ff;
            }

            .cls-5 {
                 font-size: 67.77px;
                fill: #00ff00;
                font-family: Hooge0554, "hooge 05_54"; */
                
                
            }

            .cls-6 {
                stroke: #dadada;
                stroke-miterlimit: 10;
                stroke-width: 3px;
            }

            @keyframes typing {
                from {
                    width: 0
                }

                to {
                    width: 100%
                }
            }

            /* The typewriter cursor effect */
            @keyframes blink-caret {

                from,
                to {
                    border-color: transparent
                }

                50% {
                    border-color: #98d400
                }
            }
        </style>
    </defs>
    <path class="cls-1"
        d="M335,473.5A233.5,233.5,0,0,1,169.89,74.89,233.5,233.5,0,0,1,500.11,405.11,232,232,0,0,1,335,473.5Z"
        transform="translate(-100 -5)" />
    <path class="cls-2"
        d="M335,8a232.06,232.06,0,0,1,90.3,445.77A232.06,232.06,0,0,1,244.7,26.23,230.47,230.47,0,0,1,335,8m0-3C205.21,5,100,110.21,100,240S205.21,475,335,475,570,369.79,570,240,464.79,5,335,5Z"
        transform="translate(-100 -5)" /><text class="cls-3" transform="translate(40.23 190.94)">Otto</text><text
        class="cls-4" transform="translate(95.85 259.94)">Gutiérrez</text><text class="cls-5"
        transform="translate(32.62 339.06) scale(0.29 1)">Computer Systems Engineer</text>
    <line class="cls-6" x1="18.1" y1="277.5" x2="452" y2="277.5" />
</svg> -->
<svg id="Capa_1" data-name="Capa 1" xmlns="http://www.w3.org/2000/svg" viewBox="0 0 441.9 220.81">
    <defs>
        <style>
            .cls-1 {
                font-size: 149.38px;
                fill: #1793d1;
            }

            .cls-1,
            .cls-2 {
                font-family: Sylfaen;
            }

            .cls-2 {
                font-size: 91.1px;
                fill: #1793d1;
            }

            .cls-3 {
                fill: #fff;
                stroke: #dd4814;
                stroke-miterlimit: 10;
                stroke-width: 3px;
            }
        </style>
    </defs><text class="cls-1" transform="translate(22.13 124.94)">Otto</text><text class="cls-2"
        transform="translate(77.75 193.94)">Gutiérrez</text>
    <line class="cls-3" y1="211.5" x2="433.9" y2="211.5" />
</svg>